<svg data-v-0dd9719b="" version="1.0" xmlns="http://www.w3.org/2000/svg" xmlns:xlink="http://www.w3.org/1999/xlink" width="100%" height="100%" viewBox="0 0 340.000000 250.000000" preserveAspectRatio="xMidYMid meet" color-interpolation-filters="sRGB" style="margin: auto;"> <rect data-v-0dd9719b="" x="0" y="0" width="100%" height="100%" fill="#fff" fill-opacity="1" class="background"></rect> <rect data-v-0dd9719b="" x="0" y="0" width="100%" height="100%" fill="url(#watermark)" fill-opacity="1" class="watermarklayer"></rect> <g data-v-0dd9719b="" fill="#eb6133" class="icon-text-wrapper icon-svg-group iconsvg" transform="translate(55.50499725341797,94.80375099182129)"><g class="iconsvg-imagesvg" transform="translate(0,0.19024658203125)"><g><rect fill="#eb6133" fill-opacity="0" stroke-width="2" x="0" y="0" width="60" height="60.01200240048009" class="image-rect"></rect> <svg x="0" y="0" width="60" height="60.01200240048009" filtersec="colorsb5892157843" class="image-svg-svg primary" style="overflow: visible;"><svg xmlns="http://www.w3.org/2000/svg" viewBox="0 -0.0000011921134728254401 147.3699951171875 147.39999389648438"><g><g><path d="M109.54 50.92h-15A35.94 35.94 0 0 0 58.62 15V0a51 51 0 0 1 50.92 50.92z" fill="#00afec"></path><path d="M72.31 42.88a35.93 35.93 0 0 0-50.76 0L10.92 32.25a51 51 0 0 1 72 0L72.31 42.88z" fill="#007bc7"></path><path d="M15 88.79H0a51 51 0 0 1 50.92-50.92v15A35.94 35.94 0 0 0 15 88.79z" fill="#a64a97"></path><path d="M32.25 136.48a51 51 0 0 1 0-72l10.62 10.61a35.94 35.94 0 0 0 0 50.76l-10.62 10.63z" fill="#e6287b"></path><path d="M88.78 147.4a51 51 0 0 1-50.91-50.92h15a35.94 35.94 0 0 0 35.89 35.89v15z" fill="#eb6133"></path><path d="M100.48 130a50.76 50.76 0 0 1-36-14.89l10.62-10.59a35.94 35.94 0 0 0 50.76 0l10.62 10.62a50.77 50.77 0 0 1-36 14.89z" fill="#f39800"></path><path d="M96.48 109.54v-15a35.94 35.94 0 0 0 35.89-35.9h15a51 51 0 0 1-50.92 50.92z" fill="#8ec43e"></path><path d="M115.15 82.93l-10.62-10.62a35.94 35.94 0 0 0 0-50.76l10.63-10.62a51 51 0 0 1 0 72z" fill="#00ada9"></path><path d="M12.87 55c14.68-3.5 27.67-8.87 38.05-15.59v-1.54A50.8 50.8 0 0 0 12.87 55z" fill="#fff" opacity=".2"></path><path d="M10.92 32.25l10.62 10.63a35.92 35.92 0 0 1 36.6-8.7A61.22 61.22 0 0 0 69.3 22.53a51 51 0 0 0-58.38 9.72zM76.92 3.42A50.62 50.62 0 0 0 58.62 0v15a35.68 35.68 0 0 1 13.71 2.73 37.85 37.85 0 0 0 4.59-14.31z" fill="#fff" opacity=".2"></path></g></g></svg></svg> <!----></g></g> <g transform="translate(67,0)"><g data-gra="path-name" fill-rule="" class="tp-name iconsvg-namesvg" transform="translate(0,0)"><g transform="scale(1)"><g><path d="M6.17-27.36L2.21-33.48 9.99-38.52 13.99-32.45 6.17-27.36ZM14.13-29.29L14.13-36.85 40.27-36.85 40.27-29.29 37.57-29.29 37.57 6.12 24.66 6.12 24.66-1.44 31.36-1.44 31.36-29.29 14.13-29.29ZM28.75-26.32L28.75-4.68 14.85-4.68 14.85-26.32 28.75-26.32ZM20.38-18.9L20.38-11.7 23.36-11.7 23.36-18.9 20.38-18.9ZM5.71-14.4L1.4-20.25 9.31-26.14 13.63-20.29 5.71-14.4ZM9.27 5.8L2.88 4.14 6.93-11.7 13.32-10.08 9.27 5.8ZM81.05-36.31L81.05-29.11 65.84-29.11 65.84-26.59 79.34-26.59 79.34 6.3 70.25 6.3 70.25-0.09 72.86-0.09 72.86-19.66 70.52-19.66 69.25-15.66 71.64-15.66 71.64-10.35 65.7-10.35 65.7-8.05 72-8.05 72-2.38 65.7-2.38 65.7 5.22 59.13 5.22 59.13-2.38 52.92-2.38 52.92-8.05 59.13-8.05 59.13-10.35 53.05-10.35 53.05-15.66 55.53-15.66 54.23-19.66 51.98-19.66 51.98 6.3 45.54 6.3 45.54-26.59 58.95-26.59 58.95-29.11 43.83-29.11 43.83-36.31 58.95-36.31 58.95-38.66 65.84-38.66 65.84-36.31 81.05-36.31ZM63.13-15.66L64.39-19.66 60.34-19.66 61.61-15.66 63.13-15.66ZM85.41-28.66L85.41-35.23 90.86-35.23 90.86-38.3 97.06-38.3 97.06-35.23 101.43-35.23 101.43-28.66 94.28-28.66 94.28-23.58 100.31-24.79 101.66-18.13 88.16-15.39 86.81-22.05 88.38-22.36 88.38-28.66 85.41-28.66ZM85.28 5.89L85.28-0.77 100.62-0.77 100.62-2.88 88.78-2.88 88.78-7.56 100.62-7.56 100.62-9.36 87.21-9.36 87.21-14.71 104.81-14.71 101.52-14.94 103.05-36.99 103.05-37.35 121.28-37.35 121.28-15.39 112.59-15.39 112.59-19.84 114.93-19.84 114.93-21.33 108.77-21.33 108.31-14.71 120.64-14.71 120.64-9.36 107.23-9.36 107.23-7.56 119.07-7.56 119.07-2.88 107.23-2.88 107.23-0.77 122.85-0.77 122.85 5.89 85.28 5.89ZM114.93-25.11L114.93-26.68 109.17-26.68 109.03-25.11 114.93-25.11ZM114.93-30.46L114.93-32.04 109.53-32.04 109.39-30.46 114.93-30.46ZM163.39-36.99L163.39-31.45 147.01-31.45 150.07-29.88 149.85-29.47 152.41-29.47 152.32-30.78 157.59-31.18 157.72-29.47 162.72-29.47 162.72-26.55 157.59-26.55 157.59-25.33 162.18-25.33 162.18-22.81 157.59-22.81 157.59-21.69 162.18-21.69 162.18-19.08 157.59-19.08 157.59-17.95 163.31-17.95 163.31-14.89 143.91-14.89 143.91-20.65 141.93-21.64 141.93-15.03 137.07-15.03 137.07-20.02 134.32-21.46 132.93 5 128.03 4.72 130.28-37.08 132.16-36.99 143.28-36.99 143.28-38.92 150.57-38.92 150.57-36.99 163.39-36.99ZM154.35 6.52L154.35 3.65 134.73 3.65 134.73-0.94 155.7-0.94 155.7 1.53 156.87 1.53 156.87-2.07 136.66-2.07 136.66-13.54 144.36-13.54 144.45-14.8 150.3-14.4 150.25-13.54 161.55-13.54 161.55-6.34 153.09-6.34 153.09-8.82 155.47-8.82 155.47-10.08 148.19-10.08 151.16-7.74 149.4-5.44 163.31-5.44 163.31 6.52 154.35 6.52ZM141.93-10.08L141.93-5.44 146.75-5.44 143.37-8.05 144.94-10.08 141.93-10.08ZM134.87-31.45L134.5-24.84 137.93-31.45 134.87-31.45ZM141.93-24.97L145.31-31.45 140.72-31.45 143.24-30.15 141.93-27.58 141.93-24.97ZM152.59-25.33L152.59-26.55 149.04-26.55 149.04-25.33 152.59-25.33ZM152.59-17.95L152.59-19.08 149.04-19.08 149.04-17.95 152.59-17.95ZM152.59-21.69L152.59-22.81 149.04-22.81 149.04-21.69 152.59-21.69Z" transform="translate(-1.399999976158142, 38.91999816894531)"></path></g> <!----> <!----> <!----> <!----> <!----> <!----> <!----></g></g> <g data-gra="path-slogan" fill-rule="" class="tp-slogan iconsvg-slogansvg" fill="#eb6133" transform="translate(5,51.439998626708984)"><rect x="0" height="1" y="3.9750003814697266" width="18.080001831054688"></rect> <rect height="1" y="3.9750003814697266" width="18.080001831054688" x="133.91000366210938"></rect> <g transform="translate(21.080001831054688,0)"><g transform="scale(1)"><path d="M2.06-5.06L6.56-5.06L6.56-8.58L7.73-8.58L7.73 0L6.56 0L6.56-3.98L2.06-3.98L2.06 0L0.89 0L0.89-8.58L2.06-8.58L2.06-5.06ZM10.83-1.03L15.98-1.03L15.98 0L9.66 0L9.66-8.58L15.89-8.58L15.89-7.59L10.83-7.59L10.83-4.92L15.52-4.92L15.52-3.89L10.83-3.89L10.83-1.03ZM18.89-8.58L23.20-1.64L23.20-8.58L24.33-8.58L24.33 0L23.02 0L18.66-6.94L18.61-6.94L18.61 0L17.48 0L17.48-8.58L18.89-8.58ZM31.78 0L30.94-2.48L27.47-2.48L26.58 0L25.41 0L28.64-8.58L29.95-8.58L33.05 0L31.78 0ZM29.20-7.31L27.84-3.52L30.52-3.52L29.25-7.31L29.20-7.31ZM35.48-8.58L39.80-1.64L39.80-8.58L40.92-8.58L40.92 0L39.61 0L35.25-6.94L35.20-6.94L35.20 0L34.08 0L34.08-8.58L35.48-8.58ZM50.81-7.13L50.77-7.13L48.80 0L47.58 0L45.33-8.58L46.55-8.58L48.19-1.59L48.23-1.59L50.16-8.58L51.42-8.58L53.34-1.59L53.39-1.59L54.98-8.58L56.25-8.58L54 0L52.78 0L50.81-7.13ZM63 0L62.16-2.48L58.69-2.48L57.80 0L56.63 0L59.86-8.58L61.17-8.58L64.27 0L63 0ZM60.42-7.31L59.06-3.52L61.73-3.52L60.47-7.31L60.42-7.31ZM66.70-8.58L71.02-1.64L71.02-8.58L72.14-8.58L72.14 0L70.83 0L66.47-6.94L66.42-6.94L66.42 0L65.30 0L65.30-8.58L66.70-8.58ZM80.34-3.61L77.72-3.61L77.72-4.59L81.47-4.59L81.47 0L80.72 0L80.44-1.08Q79.45 0.09 77.63 0.14L77.63 0.14Q75.89 0.14 74.95-0.75L74.95-0.75Q73.55-2.06 73.59-4.36L73.59-4.36Q73.92-8.63 77.67-8.81L77.67-8.81Q80.86-8.63 81.33-6L81.33-6L80.20-6Q79.73-7.78 77.63-7.83L77.63-7.83Q74.95-7.64 74.81-4.31L74.81-4.31Q74.81-0.75 77.67-0.75L77.67-0.75Q78.70-0.75 79.45-1.31L79.45-1.31Q80.39-2.06 80.34-3.61L80.34-3.61ZM90.19-8.58L86.95-3.47L86.95 0L85.78 0L85.78-3.47L82.55-8.58L83.91-8.58L86.34-4.45L88.83-8.58L90.19-8.58ZM91.41-8.58L92.58-8.58L92.58 0L91.41 0L91.41-8.58ZM95.95-8.58L100.27-1.64L100.27-8.58L101.39-8.58L101.39 0L100.08 0L95.72-6.94L95.67-6.94L95.67 0L94.55 0L94.55-8.58L95.95-8.58ZM109.59-3.61L106.97-3.61L106.97-4.59L110.72-4.59L110.72 0L109.97 0L109.69-1.08Q108.70 0.09 106.88 0.14L106.88 0.14Q105.14 0.14 104.20-0.75L104.20-0.75Q102.80-2.06 102.84-4.36L102.84-4.36Q103.17-8.63 106.92-8.81L106.92-8.81Q110.11-8.63 110.58-6L110.58-6L109.45-6Q108.98-7.78 106.88-7.83L106.88-7.83Q104.20-7.64 104.06-4.31L104.06-4.31Q104.06-0.75 106.92-0.75L106.92-0.75Q107.95-0.75 108.70-1.31L108.70-1.31Q109.64-2.06 109.59-3.61L109.59-3.61Z" transform="translate(-0.890625, 8.8125)"></path></g></g></g></g></g><defs v-gra="od"></defs></svg>